<svg width="166" height="30" viewBox="0 0 166 30" fill="none" xmlns="http://www.w3.org/2000/svg">
<path d="M21 4.60769C21.8284 3.17282 23.6897 2.66162 24.9314 3.75861C26.632 5.26114 27.9798 7.1391 28.8582 9.25975C30.1218 12.3104 30.3435 15.6928 29.4889 18.8823C28.6343 22.0718 26.7511 24.8902 24.1314 26.9003C21.5118 28.9104 18.302 30 15 30C11.698 30 8.48824 28.9104 5.86858 26.9003C3.24892 24.8902 1.36574 22.0718 0.511113 18.8823C-0.343511 15.6928 -0.121819 12.3104 1.14181 9.25975C2.0202 7.13911 3.36796 5.26114 5.06865 3.75862C6.31032 2.66162 8.17157 3.17282 9 4.6077L12.4019 10.5C13.5566 12.5 16.4434 12.5 17.5981 10.5L21 4.60769Z" fill="white"/>
<path d="M72.2656 26H66.7656L65.1719 21.0156H57.2031L55.625 26H50.1562L58.3125 3.59375H64.2969L72.2656 26ZM64.0156 17.1406L61.6094 9.60938C61.4323 9.04688 61.3073 8.375 61.2344 7.59375H61.1094C61.0573 8.25 60.9271 8.90104 60.7188 9.54688L58.2812 17.1406H64.0156ZM74.1313 25.5781V21.5781C74.9438 22.0677 75.751 22.4323 76.5531 22.6719C77.3656 22.9115 78.1313 23.0312 78.85 23.0312C79.725 23.0312 80.4125 22.9115 80.9125 22.6719C81.4229 22.4323 81.6781 22.0677 81.6781 21.5781C81.6781 21.2656 81.5635 21.0052 81.3344 20.7969C81.1052 20.5885 80.8083 20.4062 80.4438 20.25C80.0896 20.0938 79.699 19.9531 79.2719 19.8281C78.8448 19.7031 78.4333 19.5625 78.0375 19.4062C77.4021 19.1667 76.8396 18.9115 76.35 18.6406C75.8708 18.3594 75.4646 18.0365 75.1313 17.6719C74.8083 17.3073 74.5583 16.8854 74.3813 16.4062C74.2146 15.9271 74.1313 15.3594 74.1313 14.7031C74.1313 13.8073 74.324 13.0365 74.7094 12.3906C75.1052 11.7448 75.626 11.2188 76.2719 10.8125C76.9281 10.3958 77.6729 10.0938 78.5063 9.90625C79.35 9.70833 80.225 9.60938 81.1313 9.60938C81.8396 9.60938 82.5583 9.66667 83.2875 9.78125C84.0167 9.88542 84.7354 10.0417 85.4438 10.25V14.0625C84.8188 13.6979 84.1469 13.4271 83.4281 13.25C82.7198 13.0625 82.0219 12.9688 81.3344 12.9688C81.0115 12.9688 80.7042 13 80.4125 13.0625C80.1313 13.1146 79.8813 13.1979 79.6625 13.3125C79.4438 13.4167 79.2719 13.5573 79.1469 13.7344C79.0219 13.901 78.9594 14.0938 78.9594 14.3125C78.9594 14.6042 79.0531 14.8542 79.2406 15.0625C79.4281 15.2708 79.6729 15.4531 79.975 15.6094C80.2771 15.7552 80.6104 15.8906 80.975 16.0156C81.35 16.1302 81.7198 16.25 82.0844 16.375C82.7406 16.6042 83.3344 16.8542 83.8656 17.125C84.3969 17.3958 84.85 17.7135 85.225 18.0781C85.6104 18.4427 85.9021 18.8698 86.1 19.3594C86.3083 19.849 86.4125 20.4323 86.4125 21.1094C86.4125 22.0573 86.2042 22.8698 85.7875 23.5469C85.3813 24.2135 84.8344 24.7604 84.1469 25.1875C83.4698 25.6042 82.6833 25.9062 81.7875 26.0938C80.9021 26.2917 79.9802 26.3906 79.0219 26.3906C77.2615 26.3906 75.6313 26.1198 74.1313 25.5781ZM99.5438 25.8125C98.8146 26.1979 97.7156 26.3906 96.2469 26.3906C92.7677 26.3906 91.0281 24.5833 91.0281 20.9688V13.6406H88.4344V10H91.0281V6.54688L95.95 5.14062V10H99.5438V13.6406H95.95V20.1094C95.95 21.776 96.6115 22.6094 97.9344 22.6094C98.4552 22.6094 98.9917 22.4583 99.5438 22.1562V25.8125ZM110.566 26.3906C107.899 26.3906 105.8 25.6458 104.269 24.1562C102.748 22.6562 101.987 20.625 101.987 18.0625C101.987 15.4167 102.779 13.349 104.362 11.8594C105.946 10.3594 108.086 9.60938 110.784 9.60938C113.441 9.60938 115.524 10.3594 117.034 11.8594C118.545 13.349 119.3 15.3229 119.3 17.7812C119.3 20.4375 118.519 22.5365 116.956 24.0781C115.404 25.6198 113.274 26.3906 110.566 26.3906ZM110.691 13.3906C109.524 13.3906 108.618 13.7917 107.972 14.5938C107.326 15.3958 107.003 16.5312 107.003 18C107.003 21.0729 108.243 22.6094 110.722 22.6094C113.086 22.6094 114.269 21.0312 114.269 17.875C114.269 14.8854 113.076 13.3906 110.691 13.3906ZM133.541 14.4531C132.947 14.1302 132.254 13.9688 131.463 13.9688C130.39 13.9688 129.551 14.3646 128.947 15.1562C128.343 15.9375 128.041 17.0052 128.041 18.3594V26H123.103V10H128.041V12.9688H128.103C128.884 10.8021 130.291 9.71875 132.322 9.71875C132.843 9.71875 133.249 9.78125 133.541 9.90625V14.4531ZM146.891 14.4531C146.297 14.1302 145.604 13.9688 144.812 13.9688C143.74 13.9688 142.901 14.3646 142.297 15.1562C141.693 15.9375 141.391 17.0052 141.391 18.3594V26H136.453V10H141.391V12.9688H141.453C142.234 10.8021 143.641 9.71875 145.672 9.71875C146.193 9.71875 146.599 9.78125 146.891 9.90625V14.4531ZM164.178 19.4062H153.741C153.907 21.7292 155.371 22.8906 158.131 22.8906C159.892 22.8906 161.439 22.474 162.772 21.6406V25.2031C161.293 25.9948 159.371 26.3906 157.006 26.3906C154.423 26.3906 152.418 25.6771 150.991 24.25C149.564 22.8125 148.85 20.8125 148.85 18.25C148.85 15.5938 149.621 13.4896 151.162 11.9375C152.704 10.3854 154.6 9.60938 156.85 9.60938C159.183 9.60938 160.985 10.3021 162.256 11.6875C163.537 13.0729 164.178 14.9531 164.178 17.3281V19.4062ZM159.6 16.375C159.6 14.0833 158.673 12.9375 156.819 12.9375C156.027 12.9375 155.34 13.2656 154.756 13.9219C154.183 14.5781 153.834 15.3958 153.709 16.375H159.6Z" fill="white"/>
</svg>
